# xmcd
#
# Track frame offsets: 
#        150
#        15625
#        32744
#        46031
#        64821
#        83639
#        95672
#        123295
#        143980
#        162966
#        174916
#
# Disc length: 2510 seconds
#
# Revision: 0
# Processed by: cddbd v1.5.1PL2 Copyright (c) Steve Scherf et al.
# Submitted via: ExactAudioCopy v0.95a3
#
DISCID=8409cc0b
DTITLE=Todd Taylor - Taylor Made
DYEAR=2005
DGENRE=Bluegrass
TTITLE0=Foggy Mtn. Special
TTITLE1=Jo Ban
TTITLE2=Washington County
TTITLE3=Gold Tone Jubilee
TTITLE4=Unleashed
TTITLE5=John Hardy
TTITLE6=Ghost Riders
TTITLE7=Shuckin The Corn
TTITLE8=Stairway To Heaven
TTITLE9=Dixie Breakdown
TTITLE10=El Cumbanchero
EXTD=
EXTT0=
EXTT1=
EXTT2=
EXTT3=
EXTT4=
EXTT5=
EXTT6=
EXTT7=
EXTT8=
EXTT9=
EXTT10=
PLAYORDER=
